<?xml-stylesheet type="text/css" href="../css/svg.css" ?>
<svg xmlns="http://www.w3.org/2000/svg" 
	xmlns:xlink="http://www.w3.org/1999/xlink" width="1280" height="720" viewBox="0 0 1920 1080" id="map-svg">
	<title>nildrohainmap_colour_elements</title>
	<g id="Layer_1" data-name="Layer 1">
		<image width="1920" height="1080" xlink:href="nildrohainmap_colour.jpg"/>
	</g>
	<g id="Edges">
		<path class="edge highway" id="edge-0" d="M251.3,151.3S256,194,391.7,233"/>
		<path class="edge highway" id="edge-1" d="M610.3,355.3C579,351,554.3,302.7,494,271c-42.7-22.4-69.3-20-102.3-38"/>
		<path class="edge highway" id="edge-2" d="M391.7,233s36.6,99.7,73.6,113.7,63.9,32.2,104.4,17.6c23-8.3,40.6-9,40.6-9"/>
		<path class="edge highway" id="edge-3" d="M610.3,355.3s-17,29.7-36,46.7"/>
		<path class="edge highway" id="edge-4" d="M574.3,402s-19.6,40-199.6,92"/>
		<path class="edge highway" id="edge-5" d="M374.7,494S408.3,600,420,622"/>
		<path class="edge highway" id="edge-6" d="M420,622s-17.1,47.9-63,71.7c-18,9.3,1.3,32.5,6.7,54,3.6,14.6-14.8,19.3-3,99.3"/>
		<path class="edge highway" id="edge-7" d="M420,622s26,28,89.2,34"/>
		<path class="edge highway" id="edge-8" d="M574.3,402s-3.1,42.2,53.1,71.2c62.3,32.1,88.9,12.6,88.9,12.6"/>
		<path class="edge highway" id="edge-9" d="M716.3,485.8s48.1-19.7,77.2-24"/>
		<path class="edge highway" id="edge-10" d="M793.5,461.8s80.1-39.4,91-65.2S958,306,958,306"/>
		<path class="edge highway" id="edge-11" d="M958,306s67.2-28.9,94.7-33,29.8-21.7,21.5-40.9,7.6-37.2,7.5-64.8"/>
		<path class="edge highway" id="edge-12" d="M1081.7,167.3s97.1-16.7,163.6,25.1c58,29.1,35.5,42.7,45.4,46.6s5-17.1,22.5-16.2,19.5,27.5,46.4,29.1,53.7-41.7,90.1-37.2"/>
		<path class="edge highway" id="edge-13" d="M1449.7,214.7s36.3-1.6,54.5,77.3c10.6,46,48.1,70,48.1,70"/>
		<path class="edge highway" id="edge-14" d="M1552.3,362s3.4,87,139,274.8"/>
		<path class="edge highway" id="edge-15" d="M1691.3,636.8s11,29.1-74.3,50.2"/>
		<path class="edge highway" id="edge-16" d="M1449.7,214.7s-47,43.6-50,87.6-10.2,68.3-64.4,73.7c-127,12.8-40.3,64.5-59.8,75-26.7,14.4-54.2,51.7-54.2,51.7"/>
		<path class="edge highway" id="edge-17" d="M793.5,461.8s92.8,74.2,150.2,87.5,156,83,156,83"/>
		<path class="edge highway" id="edge-18" d="M1099.7,632.3s90-126.3,121.6-129.6"/>
		<path class="edge highway" id="edge-19" d="M1221.3,502.7s39.4,62.6,141.4,92S1617,687,1617,687"/>
		<path class="edge highway" id="edge-20" d="M1099.7,632.3s-62,80-77.7,117S964.7,813,941,789s-76.7-19.3-76.7-19.3"/>
		<path class="edge highway" id="edge-21" d="M509.2,656s43.5,7.3,75.5,61.3,57.6,73,85,39.7,57.6,7.3,78.3,4.7,116.3,8,116.3,8"/>
		<path class="edge highway" id="edge-22" d="M716.3,485.8s60,38.2,66.4,77.2,40,70.7,55.6,65.7,28.4,0,25.7,9.3-16.7,30.3-10.7,42.3S873.7,692.7,864,707s-15,12-9,27.3,9.3,35.4,9.3,35.4"/>
		<path class="edge badland" id="edge-23" d="M610.3,355.3s39.2-18.6,54.1-37.8,42-36.4,69.2-37.4,73.8-2,120.5,13.2,58.2,15.8,78.1,15S958,306,958,306"/>
		<path class="edge badland" id="edge-24" d="M1617,687s79.2,26.4,79.9,40.6,1.5,138.7-170.2,112.7"/>
		<path class="edge badland" id="edge-25" d="M1526.7,840.3s-205.5-7.5-288-109c-25.5-31.3-139-99-139-99"/>
		<path class="edge badland" id="edge-26" d="M958,306s56,59,164,85"/>
		<path class="edge badland" id="edge-27" d="M1122,391s7.7,40.3,99.3,111.7"/>
	</g>
	<g id="Nodes">
		<circle class="node" id="node-0" data-name="Tabula Rasa" cx="251.3" cy="151.3" r="10"/>
		<circle class="node" id="node-1" cx="391.7" cy="233" r="10"/>
		<circle class="node" id="node-2" data-name="Fort Nog" cx="610.3" cy="355.3" r="10"/>
		<circle class="node" id="node-3" cx="574.3" cy="402" r="10"/>
		<circle class="node" id="node-4" data-name="Aequor" cx="374.7" cy="494" r="10"/>
		<circle class="node" id="node-5" cx="420" cy="622" r="10"/>
		<circle class="node" id="node-6" data-name="Graymoor" cx="509.2" cy="656" r="10"/>
		<circle class="node" id="node-7" data-name="Lake of Pearls" cx="360.7" cy="847" r="10"/>
		<circle class="node" id="node-8" data-name="Southwood" cx="864.3" cy="769.7" r="10"/>
		<circle class="node" id="node-9" data-name="Thornbrush" cx="716.3" cy="485.8" r="10"/>
		<circle class="node" id="node-10" cx="793.5" cy="461.8" r="10"/>
		<circle class="node" id="node-11" data-name="Fort Rom" cx="1099.7" cy="632.3" r="10"/>
		<circle class="node" id="node-12" data-name="Iraebor" cx="1221.3" cy="502.7" r="10"/>
		<circle class="node" id="node-13" data-name="Domari Tower" cx="958" cy="306" r="10"/>
		<circle class="node" id="node-14" data-name="Ruins of Ishtal" cx="1122" cy="391" r="10"/>
		<circle class="node" id="node-15" data-name="Pazazu's Bones" cx="1081.7" cy="167.3" r="10"/>
		<circle class="node" id="node-16" data-name="Jikanteido" cx="1449.7" cy="214.7" r="10"/>
		<circle class="node" id="node-17" data-name="Dragoncrest" cx="1552.3" cy="362" r="10"/>
		<circle class="node" id="node-18" data-name="Saithaul" cx="1526.7" cy="840.3" r="10"/>
		<circle class="node" id="node-19" cx="1617" cy="687" r="10"/>
		<circle class="node" id="node-20" data-name="Blackroot" cx="1691.3" cy="636.8" r="10"/>
	</g>
	<g id="RestNodes"></g>
</svg>